<?xml version="1.0" encoding="UTF-8"?>
<svg version="1.1" xmlns="http://www.w3.org/2000/svg" width="512" height="512">
<path d="M0 0 C7.04729346 -0.29011157 13.53317071 1.11981508 19.21484375 5.46875 C23.9099358 10.27562995 25.03941586 13.88461916 25.27734375 20.53125 C25.09483228 27.20812806 23.94599836 31.6951063 19.47265625 36.6796875 C14.96888488 40.55606784 9.98786822 40.98930944 4.24609375 41.70703125 C-8.70965258 43.41564458 -21.46984751 47.6281215 -29.78125 58.22265625 C-42.27993523 76.14471113 -39.7118778 95.31820265 -37.2800293 115.98168945 C-37.07710933 117.77446065 -36.87511156 119.56733641 -36.6739502 121.36030579 C-36.13190283 126.16690863 -35.57667353 130.97189945 -35.01844001 135.7766459 C-34.43234089 140.83811321 -33.85746672 145.90085752 -33.28096008 150.96342468 C-32.31231556 159.45442625 -31.33523521 167.94442348 -30.3527832 176.43383789 C-29.22093361 186.21493096 -28.10156205 195.99738947 -26.9890458 205.78069907 C-25.91278587 215.24332543 -24.8286311 224.70503047 -23.74061012 234.16631126 C-23.28017884 238.17084576 -22.82228229 242.17565764 -22.3664608 246.18071938 C-21.82868792 250.9020521 -21.2838972 255.62252619 -20.73390961 260.3424511 C-20.53445093 262.06336199 -20.33726472 263.78453821 -20.14265633 265.50600433 C-17.25663192 290.99572667 -11.17916022 315.24543332 9.39648438 332.45849609 C29.5703749 348.26054782 50.5880898 350.76766499 75.265625 350.67382812 C77.68387267 350.67925936 80.10211703 350.68638759 82.52035522 350.69506836 C88.36654846 350.71131143 94.21250996 350.70907687 100.05870986 350.6974178 C104.81647021 350.68832796 109.57417312 350.68718323 114.3319397 350.69151306 C115.01301767 350.69212599 115.69409564 350.69273893 116.39581233 350.69337043 C117.78006484 350.69464953 119.16431733 350.69594639 120.5485698 350.6972608 C133.48254253 350.70862559 146.41640125 350.69561767 159.35035527 350.67405933 C170.41168709 350.65619206 181.4728509 350.65929733 192.53417969 350.67773438 C205.42666855 350.69921401 218.31905789 350.70752734 231.21156216 350.69528532 C232.59029069 350.69401133 233.96901924 350.69275384 235.3477478 350.69151306 C236.02584025 350.69089596 236.7039327 350.69027886 237.40257341 350.68964306 C242.14622468 350.68621134 246.88981201 350.69197103 251.63345337 350.70143127 C258.03589921 350.71305961 264.43803049 350.70483704 270.84044266 350.68185425 C273.17796941 350.67660431 275.51552304 350.67801645 277.85303879 350.68690491 C293.81513384 350.74196501 309.86082652 350.29195068 324.21484375 342.40625 C324.86855957 342.06118408 325.52227539 341.71611816 326.19580078 341.3605957 C344.94356505 331.21764537 357.62577851 315.94794859 364.73433208 295.92036438 C365.96081525 291.74435877 366.69956623 287.65334182 367.3405304 283.35620117 C367.46776688 282.52522258 367.59500336 281.69424398 367.7260955 280.83808422 C369.01075157 272.29501245 370.03949878 263.72730193 371.01635742 255.14453125 C371.21352899 253.43855228 371.41102357 251.73261062 371.60881042 250.02670288 C372.13744652 245.45690786 372.66084997 240.88652966 373.18260741 236.31594467 C373.51029718 233.44699642 373.83904192 230.57817092 374.16811562 227.7093811 C375.3202419 217.66385718 376.46764241 207.61780507 377.61108398 197.57128906 C378.67052854 188.26405683 379.74110802 178.95814991 380.81670588 169.65277195 C381.74583426 161.60971165 382.666618 153.56572288 383.58119565 145.52099514 C384.12493087 140.73968234 384.67193976 135.95880398 385.22762108 131.17886353 C385.75017018 126.68174861 386.2621909 122.18354958 386.76669502 117.68437576 C386.95164376 116.05033141 387.14011266 114.41668023 387.33271027 112.78351974 C388.34817832 104.153241 389.00700817 95.61185384 389.05708313 86.91723633 C389.06821838 85.73984532 389.06821838 85.73984532 389.07957858 84.53866863 C389.02740565 74.78987176 385.44275012 66.99684963 379.83984375 59.15625 C379.13859375 58.145625 378.43734375 57.135 377.71484375 56.09375 C369.67954388 46.84557468 358.44283901 43.48082211 346.77734375 42.21875 C339.96615316 41.4638692 334.06386989 40.72221831 329.29296875 35.4453125 C324.32410982 28.82947224 323.98533385 22.27889467 324.83984375 14.15625 C326.77493209 9.03348501 330.15044978 4.99169751 334.83984375 2.15625 C349.9315084 -2.87430488 367.83457562 1.55709677 381.83984375 8.15625 C402.62123965 18.69181193 419.29161723 36.30529487 427 58.49609375 C435.19263236 84.60093305 429.83751001 112.84919683 426.69812751 139.4890027 C426.10843806 144.51924134 425.53567339 149.5514115 424.96064758 154.58334351 C423.99480456 163.01428713 423.0176316 171.44385145 422.0324707 179.87255859 C420.7737348 190.64239828 419.534121 201.41434985 418.3004179 212.18708229 C417.23056972 221.52758287 416.15187788 230.86705922 415.07183862 240.20638609 C414.72908117 243.17350931 414.38752581 246.14076903 414.0461483 249.1080513 C413.50703644 253.78912556 412.96235395 258.46952204 412.41359711 263.1494751 C412.21477361 264.85146579 412.01760283 266.55365062 411.82234383 268.25605392 C408.38058568 298.22543484 408.38058568 298.22543484 404.15234375 310.21875 C403.89598145 310.95786621 403.63961914 311.69698242 403.37548828 312.45849609 C392.42025568 342.99107476 370.36077177 367.09889123 341.15234375 381.09375 C319.8449834 390.89513576 299.0909336 392.609493 275.94921875 392.54443359 C273.49303963 392.54850755 271.03686235 392.55385402 268.58068848 392.56036377 C262.64543459 392.57254062 256.71028568 392.57087298 250.7750349 392.56212585 C245.94437417 392.55530593 241.11374524 392.55445101 236.28308105 392.5576973 C235.24544825 392.55838684 235.24544825 392.55838684 234.18685317 392.55909032 C232.78085994 392.56004966 231.37486671 392.5610223 229.9688735 392.5620081 C216.83459072 392.57052982 203.70037111 392.56077869 190.56609869 392.544607 C179.33570087 392.53120675 168.10539614 392.53353575 156.875 392.54736328 C143.78254291 392.56347631 130.69014095 392.56970615 117.59767532 392.56052649 C116.19731904 392.559571 114.79696275 392.55862789 113.39660645 392.5576973 C112.70789325 392.55723447 112.01918006 392.55677164 111.30959678 392.55629479 C106.49377841 392.553722 101.67799549 392.55803861 96.86218262 392.56513596 C90.36129384 392.57450759 83.86053834 392.56768284 77.35966492 392.55045319 C74.98707873 392.54651788 72.61447765 392.54757103 70.24189758 392.55424118 C53.76648636 392.59625602 37.40780631 392.07309974 21.71484375 386.46875 C20.61293701 386.08420654 20.61293701 386.08420654 19.48876953 385.69189453 C-10.95236841 374.70380072 -35.29304399 352.50943157 -49.44580078 323.4050293 C-55.37517302 310.48493028 -58.34112446 297.45233655 -60.04785156 283.37207031 C-60.21662926 282.01819605 -60.38585891 280.66437807 -60.55550003 279.31061172 C-61.10162466 274.92716841 -61.63194935 270.54188316 -62.16015625 266.15625 C-62.2936337 265.05216891 -62.2936337 265.05216891 -62.42980766 263.92578316 C-65.00132276 242.65204957 -67.46008943 221.36478087 -69.92055893 200.0779686 C-71.13557757 189.56788687 -72.36081594 179.05910455 -73.59952617 168.55178809 C-74.48094583 161.06754609 -75.35030413 153.58195836 -76.21121144 146.09532952 C-76.72103738 141.66459587 -77.23569893 137.23456993 -77.76369476 132.80596161 C-84.42396351 76.83800265 -84.42396351 76.83800265 -77.16015625 58.15625 C-76.78632812 57.19332031 -76.4125 56.23039062 -76.02734375 55.23828125 C-74.84896603 52.47182494 -73.54981256 49.82236027 -72.16015625 47.15625 C-71.680625 46.20363281 -71.20109375 45.25101563 -70.70703125 44.26953125 C-60.35750749 25.05257573 -41.88757598 10.33246125 -21.0859375 3.8046875 C-14.10041594 1.79126924 -7.23661233 0.52344393 0 0 Z " fill="#000000" transform="translate(81.16015625,119.84375)"/>
<path d="M0 0 C0.75667969 0.65484375 1.51335937 1.3096875 2.29296875 1.984375 C21.75072495 20.16048258 33.81148366 49.02203896 35.11459351 75.31188965 C35.18084675 77.9686285 35.21708714 80.62376542 35.23828125 83.28125 C35.246353 84.25356567 35.25442474 85.22588135 35.26274109 86.22766113 C35.27651289 88.27496593 35.2872656 90.32229303 35.29516602 92.36962891 C35.30672239 94.45661173 35.32723133 96.54356418 35.35668945 98.63037109 C35.39939771 101.66003313 35.41553484 104.68882423 35.42578125 107.71875 C35.44328934 108.64498169 35.46079742 109.57121338 35.47883606 110.5255127 C35.45628251 117.29266324 34.10990273 121.60243127 29.4375 126.70703125 C24.91002324 130.1887593 21.85735319 132.24485788 16.09307861 132.26742554 C15.10627106 132.27595551 14.1194635 132.28448547 13.10275269 132.29327393 C12.026315 132.29236755 10.94987732 132.29146118 9.84082031 132.29052734 C8.70216522 132.29724457 7.56351013 132.30396179 6.39035034 132.31088257 C2.61956436 132.32990692 -1.15104399 132.33378926 -4.921875 132.3359375 C-7.54258294 132.3423631 -10.16329016 132.34909128 -12.78399658 132.35610962 C-18.28179074 132.36889785 -23.77953673 132.37187493 -29.27734375 132.37060547 C-35.61897814 132.36940544 -41.96027143 132.39048026 -48.30181956 132.4220928 C-54.41433142 132.45147096 -60.52668058 132.4585795 -66.63925934 132.45738602 C-69.23395428 132.45974424 -71.82865181 132.46858011 -74.4233017 132.48405075 C-78.05690126 132.50368444 -81.68962805 132.49788151 -85.32324219 132.48583984 C-86.39158295 132.49707886 -87.45992371 132.50831787 -88.56063843 132.51989746 C-95.7546834 132.4594311 -101.50007553 131.45533945 -106.83984375 126.18359375 C-107.20207031 125.60738281 -107.56429687 125.03117188 -107.9375 124.4375 C-108.31777344 123.85871094 -108.69804687 123.27992188 -109.08984375 122.68359375 C-112.02872249 117.24729874 -111.62961052 110.98483708 -111 105 C-109.05534122 99.85189916 -105.6797042 95.89695974 -101 93 C-95.55672414 91.09652956 -90.80800089 90.72174173 -85.12719727 90.77294922 C-83.83819267 90.77251114 -83.83819267 90.77251114 -82.52314758 90.77206421 C-79.70412837 90.77344914 -76.88537886 90.78897069 -74.06640625 90.8046875 C-72.10343063 90.80842061 -70.14045313 90.81126617 -68.17747498 90.81326294 C-63.02689411 90.82087593 -57.87642717 90.84050431 -52.72589111 90.8626709 C-47.46376079 90.88317969 -42.20161195 90.8922754 -36.93945312 90.90234375 C-26.6262522 90.92375246 -16.3131356 90.95786013 -6 91 C-6.14979456 88.43147519 -6.30246423 85.86317527 -6.45678711 83.29492188 C-6.49868919 82.57133484 -6.54059128 81.8477478 -6.58376312 81.10223389 C-7.79933384 61.0736816 -15.16970721 43.61303209 -30 30 C-45.95632296 16.48113514 -65.01938284 11.4934915 -85.60742188 12.78125 C-102.48734292 14.32455707 -118.2936126 21.7704221 -130 34 C-130.93005859 34.88365234 -130.93005859 34.88365234 -131.87890625 35.78515625 C-148.39413554 52.59596012 -150.10734791 77.52364742 -150.19923019 99.68958282 C-150.21115412 102.31329002 -150.23063387 104.93684235 -150.25234985 107.56048584 C-150.31355591 115.01260233 -150.36810947 122.46469384 -150.40136719 129.91699219 C-150.42232861 134.49333849 -150.45762431 139.06938592 -150.50212479 143.64556122 C-150.51625138 145.38220456 -150.52499966 147.11890057 -150.52817917 148.85559845 C-150.53309711 151.28198076 -150.55627089 153.70756874 -150.58349609 156.13378906 C-150.58048996 156.84456604 -150.57748383 157.55534302 -150.5743866 158.28765869 C-150.66801284 163.91662321 -152.09338237 167.95115484 -155.9375 172.08203125 C-156.618125 172.65308594 -157.29875 173.22414062 -158 173.8125 C-158.680625 174.39644531 -159.36125 174.98039063 -160.0625 175.58203125 C-164.95954277 179.1659557 -171.21662844 178.52576105 -177 178 C-182.66119631 176.27883043 -186.71314853 171.75380196 -190 167 C-191.28845093 163.13464721 -191.1639073 159.46909778 -191.17700195 155.43969727 C-191.18357315 154.56430298 -191.19014435 153.68890869 -191.19691467 152.7869873 C-191.21666904 149.88012601 -191.2283253 146.97331687 -191.23828125 144.06640625 C-191.24235678 143.06809217 -191.2464323 142.0697781 -191.25063133 141.04121208 C-191.27151758 135.74028607 -191.28579892 130.43938602 -191.29516602 125.13842773 C-191.3061362 119.71352048 -191.34041804 114.28903419 -191.38033772 108.86427402 C-191.4067678 104.65406141 -191.41488176 100.44394416 -191.41844749 96.23365593 C-191.42325881 94.2377843 -191.43471246 92.24191531 -191.45348549 90.24612617 C-191.75029056 56.55248691 -181.64791876 26.43785056 -158.25 1.8125 C-114.84337642 -39.9038345 -44.6022211 -38.64368832 0 0 Z " fill="#000000" transform="translate(335,29)"/>
<path d="M0 0 C5.90199726 5.65460815 7.88490968 11.26179707 8.1875 19.375 C7.88368222 27.52111419 5.90326404 33.1130576 -0.0625 38.75 C-6.92754741 44.20910596 -13.60053587 45.86100524 -22.3125 44.875 C-29.26853793 43.43002594 -34.79028461 40.7164229 -38.75390625 34.6796875 C-42.89213723 27.15777477 -44.37004544 20.16021699 -42.3125 11.75 C-40.01107802 5.09679828 -35.68290914 0.08972522 -29.6875 -3.5625 C-19.58665107 -8.23881895 -8.68127317 -6.94179728 0 0 Z " fill="#000000" transform="translate(359.3125,357.125)"/>
<path d="M0 0 C5.95099317 4.55683425 9.46942418 10.61431657 10.49609375 18.03515625 C10.77870243 26.09892404 9.71725115 32.66323681 4.28515625 38.81640625 C-1.64216278 44.41702265 -7.26063822 46.8917411 -15.38671875 47.25390625 C-22.76367159 47.03904355 -29.82829843 44.22182215 -34.94921875 38.81640625 C-39.56077638 31.68945354 -41.74507357 24.75330029 -40.609375 16.28125 C-38.97801336 9.38261615 -35.4514506 4.25982046 -29.94921875 -0.18359375 C-20.06648452 -5.51280072 -9.7301933 -5.90831376 0 0 Z " fill="#000000" transform="translate(356.94921875,269.18359375)"/>
<path d="M0 0 C6.12802579 4.00219737 10.2641782 8.81803731 12 16 C12.94118476 23.90203037 12.69750401 31.3431093 8 38 C2.52975971 44.10385885 -2.28515716 47.45987766 -10.5625 48.2421875 C-18.61844464 48.62260711 -23.94016114 46.39899569 -30.75 42.375 C-35.7181337 37.13085887 -38.65574353 30.43867735 -39.0625 23.21875 C-38.80048755 13.91730814 -35.15804977 8.15804977 -28.6875 1.6875 C-19.56058235 -4.04335527 -9.69426318 -4.7540802 0 0 Z " fill="#000000" transform="translate(269,268)"/>
<path d="M0 0 C5.65640993 4.91383424 9.6044853 9.89308568 10.3359375 17.48828125 C10.42366321 26.07662853 10.23912739 32.37634999 4.234375 38.92578125 C-1.53096045 44.40738956 -7.03924589 47.07068983 -15 47.375 C-22.22936476 47.13106438 -28.40774805 44.59807383 -34 40 C-40.18950431 31.73617532 -40.72704119 24.08374514 -40 14 C-38.37654233 7.33038092 -33.58115603 2.73394156 -28 -1 C-18.56137707 -5.64518615 -9.16472861 -5.00136133 0 0 Z " fill="#000000" transform="translate(185,355)"/>
<path d="M0 0 C5.02941429 4.02166523 8.30600921 8.23901571 9.79296875 14.55859375 C10.55343271 21.46614135 10.96905358 28.61792342 7.2578125 34.74609375 C2.96342122 40.05968723 -2.2555505 45.4681654 -9.20703125 46.55859375 C-17.03969454 47.256331 -23.45684731 46.82259883 -30.20703125 42.55859375 C-34.73794679 38.73248729 -38.31876434 34.22339448 -40.20703125 28.55859375 C-40.85301125 20.31970134 -41.12346994 12.52470266 -36.20703125 5.55859375 C-26.78181932 -5.31337758 -12.22778915 -7.98593663 0 0 Z " fill="#000000" transform="translate(185.20703125,269.44140625)"/>
<path d="M0 0 C6.12802579 4.00219737 10.2641782 8.81803731 12 16 C12.94323339 23.91923038 12.65616202 31.30349732 8 38 C2.89940011 43.77767067 -2.74495205 47.40398018 -10.4453125 48.27734375 C-18.68469113 48.59230471 -25.59971644 46.26245537 -32 41 C-37.5252143 34.67890996 -39.28186612 26.79189419 -38.87890625 18.51171875 C-37.69470792 11.44315344 -33.63712348 6.63712348 -28.6875 1.6875 C-19.56058235 -4.04335527 -9.69426318 -4.7540802 0 0 Z " fill="#000000" transform="translate(269,354)"/>
</svg>
